# xmcd
#
# Track frame offsets:
#	150
#	13535
#	27665
#	42212
#	53950
#	66417
#	80407
#	93755
#	107570
#	120660
#	134290
#	147655
#	161105
#	173740
#	186265
#	199015
#	211597
#	224142
#	237340
#	251352
#	266350
#	279832
#	292557
#	307495
#	320772
#
# Disc length: 4441 seconds
#
# Revision: 2
# Processed by: cddbd v1.4b41PL2 Copyright (c) Steve Scherf et al.
# Submitted via: CDmax 1.7.6
#
DISCID=75115719
DTITLE=Jimmie Davis - Nobody's Darling But Mine, Volume #3
DYEAR=1900
DGENRE=
TTITLE0=Tom Cat and Pussy Blues
TTITLE1=Organ-Grinder Blues
TTITLE2=Rockin' Blues #1
TTITLE3=Wampus Kitty Mama #1
TTITLE4=Bury Me in Old Kentucky
TTITLE5=Jealous Lover
TTITLE6=Gamblers Return
TTITLE7=Home in Caroline
TTITLE8=It's All Coming Home to You
TTITLE9=I Wonder If She's Blue
TTITLE10=When It's Round-Up Time in Heaven
TTITLE11=Would You
TTITLE12=You've Been Tom Cattin' Around
TTITLE13=Alimony Blues
TTITLE14=Keyhole in the Door
TTITLE15=Beautiful Texas
TTITLE16=Triflin' Mama Blues
TTITLE17=I Want Her Trailor-Made
TTITLE18=Alimony Blues
TTITLE19=There Ain't Gonna Be No Afterwhile
TTITLE20=Easy Rider Blues
TTITLE21=Nobody's Darlin But Mine
TTITLE22=When It's Round-Up Time in Heaven
TTITLE23=Good Time Papa Blues
TTITLE24=Shirt Tail Blues
EXTD=
EXTT0=
EXTT1=
EXTT2=
EXTT3=
EXTT4=
EXTT5=
EXTT6=
EXTT7=
EXTT8=
EXTT9=
EXTT10=
EXTT11=
EXTT12=
EXTT13=
EXTT14=
EXTT15=
EXTT16=
EXTT17=
EXTT18=
EXTT19=
EXTT20=
EXTT21=
EXTT22=
EXTT23=
EXTT24=
PLAYORDER=
